Coordinates
version=1
nRows=33
nColumns=38
inDegrees=no

Units are S.I. units (second, meters, Newtons, ...)
If the header above contains a line with 'inDegrees', this indicates whether rotational values are in degrees (yes) or radians (no).

endheader
time	pelvis_tilt	pelvis_list	pelvis_rotation	pelvis_tx	pelvis_ty	pelvis_tz	hip_flexion_r	hip_adduction_r	hip_rotation_r	knee_angle_r	ankle_angle_r	subtalar_angle_r	mtp_angle_r	hip_flexion_l	hip_adduction_l	hip_rotation_l	knee_angle_l	ankle_angle_l	subtalar_angle_l	mtp_angle_l	lumbar_extension	lumbar_bending	lumbar_rotation	arm_flex_r	arm_add_r	arm_rot_r	elbow_flex_r	pro_sup_r	wrist_flex_r	wrist_dev_r	arm_flex_l	arm_add_l	arm_rot_l	elbow_flex_l	pro_sup_l	wrist_flex_l	wrist_dev_l
0.66	2.94943	1.3399	-1.29614	0.661261	-0.0793092	0.955429	0.084428	-0.100575	-0.187362	1.27785	-0.49701	0	0	-0.192778	-0.018772	-0.111439	0.264449	-0.154217	0	0	-0.450003	0.132887	-0.0664512	-0.131542	-0.659674	0.810775	0.902046	0.59726	0	0	-0.218948	-0.158726	-0.0539536	0.662667	1.46102	0	0
0.67	2.93102	1.33545	-1.27251	0.659789	-0.0721848	0.956283	0.102912	-0.0949972	-0.189869	1.26958	-0.480334	0	0	-0.208472	-0.025261	-0.10865	0.255888	-0.153371	0	0	-0.454968	0.141319	-0.0690278	-0.126219	-0.660481	0.814691	0.901342	0.596249	0	0	-0.212398	-0.157945	-0.0539392	0.658879	1.46267	0	0
0.68	2.91959	1.33334	-1.25661	0.658403	-0.0649612	0.956683	0.121865	-0.0917502	-0.194515	1.25793	-0.458715	0	0	-0.222224	-0.0291858	-0.106817	0.247484	-0.152675	0	0	-0.457688	0.147142	-0.0718302	-0.121789	-0.661392	0.81788	0.9016	0.594151	0	0	-0.20691	-0.157861	-0.053153	0.656019	1.46333	0	0
0.69	2.91893	1.32871	-1.24944	0.657029	-0.0573675	0.956957	0.137159	-0.0877445	-0.191299	1.24698	-0.434482	0	0	-0.240028	-0.0323803	-0.10626	0.238517	-0.151687	0	0	-0.462818	0.15181	-0.0773204	-0.119339	-0.662661	0.818317	0.905105	0.590892	0	0	-0.204735	-0.159511	-0.0520447	0.658228	1.46254	0	0
0.7	2.91082	1.32588	-1.23683	0.655781	-0.0503683	0.957218	0.152807	-0.0843054	-0.194851	1.22799	-0.405338	0	0	-0.254427	-0.035986	-0.10398	0.230142	-0.150282	0	0	-0.467282	0.157075	-0.0806441	-0.114275	-0.664031	0.820238	0.907172	0.58674	0	0	-0.200394	-0.160692	-0.0498597	0.658652	1.46045	0	0
0.71	2.90233	1.32435	-1.22413	0.654663	-0.043392	0.957294	0.168771	-0.0804447	-0.196295	1.2052	-0.381514	0	0	-0.267089	-0.039305	-0.101246	0.22218	-0.148059	0	0	-0.470307	0.161876	-0.083413	-0.109473	-0.665411	0.823252	0.909131	0.583441	0	0	-0.195826	-0.161959	-0.0471688	0.658711	1.45757	0	0
0.72	2.89355	1.32393	-1.21177	0.65369	-0.0364003	0.957198	0.184954	-0.0762383	-0.19548	1.17882	-0.364904	0	0	-0.278169	-0.0423637	-0.0989277	0.215421	-0.145893	0	0	-0.472236	0.166053	-0.0857766	-0.105193	-0.666483	0.825187	0.911042	0.579656	0	0	-0.1915	-0.163509	-0.0439346	0.658946	1.45505	0	0
0.73	2.88441	1.32402	-1.1995	0.652816	-0.0294095	0.95702	0.200252	-0.0718558	-0.193833	1.14796	-0.355518	0	0	-0.288053	-0.0453795	-0.0973867	0.210142	-0.14366	0	0	-0.473831	0.170036	-0.0875142	-0.101461	-0.667057	0.826001	0.912455	0.575516	0	0	-0.18659	-0.164795	-0.0405102	0.658476	1.45302	0	0
0.74	2.87426	1.32476	-1.18664	0.652043	-0.0224199	0.956734	0.214398	-0.0673414	-0.191749	1.11191	-0.350324	0	0	-0.29631	-0.0484459	-0.0970797	0.206601	-0.141064	0	0	-0.474787	0.173893	-0.0885702	-0.0986037	-0.666946	0.824786	0.913112	0.570525	0	0	-0.181151	-0.165628	-0.0376111	0.657097	1.45075	0	0
0.75	2.86408	1.32594	-1.17388	0.651293	-0.0154224	0.956324	0.227035	-0.0629594	-0.189465	1.07154	-0.346913	0	0	-0.303354	-0.0512942	-0.0970675	0.204302	-0.137061	0	0	-0.475028	0.177449	-0.088706	-0.0954931	-0.666594	0.82535	0.912485	0.567195	0	0	-0.175051	-0.166577	-0.0339186	0.654693	1.44938	0	0
0.76	2.85423	1.32796	-1.16179	0.650566	-0.00840822	0.955798	0.239088	-0.0586348	-0.186247	1.02876	-0.341859	0	0	-0.308892	-0.0535757	-0.0971867	0.203572	-0.133471	0	0	-0.47453	0.180611	-0.0884076	-0.0919325	-0.665941	0.827218	0.910595	0.564651	0	0	-0.168374	-0.167146	-0.0301184	0.65113	1.44858	0	0
0.77	2.84367	1.33157	-1.14978	0.649945	-0.00133947	0.955118	0.251253	-0.0538184	-0.180355	0.983336	-0.335175	0	0	-0.312319	-0.0551691	-0.0976734	0.204587	-0.12958	0	0	-0.472382	0.183061	-0.0874344	-0.0879164	-0.665038	0.830643	0.907355	0.562545	0	0	-0.160873	-0.167474	-0.0255411	0.645718	1.44768	0	0
0.78	2.83295	1.33582	-1.13819	0.649443	0.00579735	0.954341	0.261842	-0.0481875	-0.171295	0.934687	-0.328416	0	0	-0.315467	-0.0561897	-0.0973353	0.205209	-0.1253	0	0	-0.469474	0.184734	-0.0858767	-0.0841694	-0.663626	0.833588	0.903328	0.560415	0	0	-0.153635	-0.168035	-0.0205552	0.640432	1.44608	0	0
0.79	2.82228	1.34015	-1.12686	0.649009	0.0129864	0.9535	0.270099	-0.0418507	-0.160283	0.882748	-0.321662	0	0	-0.319422	-0.0567029	-0.0951343	0.203898	-0.120966	0	0	-0.466506	0.18609	-0.084006	-0.0811603	-0.662026	0.835026	0.899391	0.558183	0	0	-0.146846	-0.168584	-0.0158464	0.635891	1.4447	0	0
0.8	2.80951	1.34636	-1.11362	0.648654	0.0202002	0.952426	0.278187	-0.0352031	-0.146251	0.827389	-0.313369	0	0	-0.320993	-0.0567458	-0.0936847	0.203578	-0.115721	0	0	-0.461255	0.186935	-0.0816223	-0.0790093	-0.66011	0.835941	0.894959	0.556103	0	0	-0.139047	-0.168931	-0.00988988	0.629341	1.44321	0	0
0.81	2.79396	1.35428	-1.09788	0.648378	0.0274517	0.95116	0.285772	-0.028157	-0.128598	0.767983	-0.301788	0	0	-0.320158	-0.056685	-0.0945087	0.204841	-0.108806	0	0	-0.453897	0.187255	-0.0786864	-0.0777746	-0.657578	0.836127	0.889643	0.554755	0	0	-0.130404	-0.169203	-0.00258709	0.620839	1.4419	0	0
0.82	2.77846	1.36167	-1.08276	0.648183	0.0348238	0.949935	0.289862	-0.0204544	-0.109668	0.703623	-0.28901	0	0	-0.320655	-0.0565348	-0.0948293	0.204656	-0.102403	0	0	-0.447345	0.187192	-0.0755022	-0.0769542	-0.654609	0.834994	0.88404	0.553814	0	0	-0.122436	-0.169259	0.00356622	0.612897	1.44082	0	0
0.83	2.76422	1.36853	-1.06931	0.648047	0.0424013	0.948738	0.289683	-0.0128227	-0.0914305	0.633742	-0.277522	0	0	-0.323108	-0.0559229	-0.0946614	0.202485	-0.0973122	0	0	-0.441019	0.186795	-0.0718136	-0.07724	-0.651397	0.832672	0.878243	0.553501	0	0	-0.114208	-0.168983	0.0100037	0.603563	1.43983	0	0
0.84	2.75135	1.37496	-1.05711	0.647907	0.0501021	0.947567	0.285423	-0.00597246	-0.0752717	0.557749	-0.271206	0	0	-0.326893	-0.0549799	-0.0939767	0.198881	-0.0937958	0	0	-0.434984	0.186389	-0.0680895	-0.0780773	-0.648165	0.830022	0.87235	0.554398	0	0	-0.105253	-0.168173	0.0165988	0.592447	1.43893	0	0
0.85	2.74119	1.38083	-1.04708	0.647713	0.0579561	0.946407	0.276846	-0.000390234	-0.0632341	0.475448	-0.271108	0	0	-0.331657	-0.0538733	-0.0936403	0.195243	-0.0912117	0	0	-0.429447	0.185915	-0.0647369	-0.0798293	-0.645056	0.826457	0.866859	0.556402	0	0	-0.096413	-0.167208	0.0231055	0.581057	1.43862	0	0
0.86	2.73734	1.38561	-1.04292	0.647532	0.0661437	0.945221	0.263635	0.00418066	-0.0582452	0.390144	-0.275414	0	0	-0.338402	-0.0525607	-0.0947944	0.191761	-0.0892486	0	0	-0.42483	0.184799	-0.0622798	-0.0832588	-0.64214	0.820315	0.862795	0.559019	0	0	-0.0898091	-0.16694	0.0292448	0.57238	1.43908	0	0
0.87	2.73846	1.38912	-1.04359	0.647409	0.0745727	0.944063	0.247546	0.00850797	-0.0581114	0.305047	-0.28565	0	0	-0.346607	-0.0514856	-0.0978604	0.189091	-0.0873835	0	0	-0.421653	0.183463	-0.0604583	-0.0878586	-0.639592	0.81177	0.860559	0.562259	0	0	-0.0854564	-0.167273	0.0346329	0.56703	1.43948	0	0
0.88	2.73911	1.39107	-1.04332	0.647319	0.0830466	0.943095	0.227372	0.0133852	-0.0827739	0.213266	-0.310944	0	0	-0.355156	-0.0518602	-0.100704	0.188201	-0.0854405	0	0	-0.420155	0.1832	-0.0590282	-0.0916893	-0.637145	0.804071	0.858457	0.566895	0	0	-0.0812697	-0.167498	0.0393185	0.562169	1.4392	0	0
0.89	2.74507	1.39347	-1.04789	0.647409	0.0917575	0.941902	0.21122	0.0183967	-0.0881786	0.142088	-0.326197	0	0	-0.362727	-0.0519309	-0.102374	0.189691	-0.0830988	0	0	-0.418306	0.181742	-0.0595422	-0.0951257	-0.634942	0.798178	0.857809	0.570368	0	0	-0.0801127	-0.168573	0.0417246	0.561166	1.43839	0	0
0.9	2.75538	1.39473	-1.05646	0.647538	0.100633	0.940686	0.195384	0.0232768	-0.0955352	0.0816879	-0.343186	0	0	-0.370797	-0.0523906	-0.103609	0.193523	-0.0802879	0	0	-0.417716	0.180305	-0.0611126	-0.0999184	-0.63336	0.789475	0.859674	0.573248	0	0	-0.0810744	-0.170324	0.0434287	0.563501	1.43716	0	0
0.91	2.76821	1.39622	-1.06745	0.647741	0.109641	0.939408	0.183298	0.0272138	-0.101551	0.0387668	-0.354311	0	0	-0.377667	-0.0526591	-0.104765	0.199996	-0.0777258	0	0	-0.417026	0.178437	-0.0634833	-0.104536	-0.632085	0.781832	0.862441	0.575923	0	0	-0.0832788	-0.172418	0.044548	0.567395	1.43583	0	0
0.92	2.7864	1.39719	-1.0831	0.647892	0.118822	0.938109	0.176197	0.0292234	-0.0915256	0.0232058	-0.356067	0	0	-0.384773	-0.0527369	-0.104792	0.208373	-0.0751765	0	0	-0.416776	0.176246	-0.0668041	-0.109306	-0.631398	0.775647	0.866215	0.578461	0	0	-0.086578	-0.174824	0.0453242	0.572553	1.43441	0	0
0.93	2.79209	1.39747	-1.08813	0.648121	0.127822	0.937154	0.169848	0.0337524	-0.111022	0.0106458	-0.363133	0	0	-0.390641	-0.0544503	-0.105528	0.218498	-0.0721608	0	0	-0.417761	0.175663	-0.0678982	-0.111799	-0.630482	0.771129	0.867885	0.581805	0	0	-0.0887389	-0.176411	0.0460676	0.57648	1.4325	0	0
0.94	2.80328	1.39545	-1.09686	0.648155	0.137106	0.936332	0.166849	0.0367725	-0.102349	0.0279157	-0.363926	0	0	-0.399383	-0.0569984	-0.105116	0.228433	-0.0693814	0	0	-0.420351	0.176135	-0.0705879	-0.115376	-0.630234	0.765473	0.870723	0.584779	0	0	-0.0918991	-0.178134	0.0471306	0.581377	1.43063	0	0
0.95	2.80439	1.39352	-1.09706	0.648322	0.146389	0.935668	0.165687	0.0415606	-0.102568	0.0528682	-0.362876	0	0	-0.407101	-0.0605107	-0.105244	0.23862	-0.0672817	0	0	-0.422954	0.17762	-0.0715471	-0.117647	-0.630082	0.761405	0.872405	0.588413	0	0	-0.0945304	-0.179212	0.0481506	0.585161	1.42885	0	0
0.96	2.80044	1.39135	-1.09237	0.648572	0.155912	0.935083	0.165719	0.0474187	-0.101243	0.086494	-0.359248	0	0	-0.414659	-0.0652139	-0.106275	0.248995	-0.0658494	0	0	-0.425038	0.179908	-0.0722459	-0.120156	-0.629566	0.757017	0.873229	0.591995	0	0	-0.0972842	-0.17991	0.0487396	0.588013	1.4272	0	0
0.97	2.78727	1.38936	-1.07891	0.648934	0.165692	0.934597	0.16476	0.0549543	-0.117328	0.113408	-0.354604	0	0	-0.421185	-0.0714714	-0.108677	0.259968	-0.0652779	0	0	-0.42595	0.183475	-0.0724751	-0.123103	-0.628605	0.751774	0.873271	0.596253	0	0	-0.0996973	-0.179798	0.0482024	0.588817	1.42464	0	0
0.98	2.77285	1.38702	-1.063	0.649209	0.175794	0.934182	0.162851	0.0629433	-0.118268	0.135463	-0.345419	0	0	-0.428008	-0.0784684	-0.109794	0.270804	-0.0660653	0	0	-0.425937	0.188085	-0.0736975	-0.127121	-0.627918	0.746528	0.873809	0.601245	0	0	-0.102242	-0.179167	0.0471099	0.588399	1.42224	0	0
